<svg width="27" height="34" viewBox="0 0 27 34" fill="none" xmlns="http://www.w3.org/2000/svg">
<path d="M13.2667 0H13.1333L0 1.4V25.5334L13.1333 33.3334L26.2667 25.5334V1.4L13.2667 0ZM24.6 24.5334L13.1333 31.3334L1.66667 24.5334V14.6667L13.0667 21.4667V22.6667L5.26667 18V19.2L13.1333 23.9334V25.2L5.26667 20.5333V21.7333L13.1333 26.4L21.0667 21.6667V16.6L24.6 14.4667V24.5334ZM24.5333 13.2L21.4 15.0667L19.9333 15.9333L13.0667 11.8667V13.0667L18.9333 16.6H18.8667L18.7333 16.6667L17.8667 17.1333L13 14.2667V15.4667L16.8667 17.7333L15.9333 18.3333L13.0667 16.6V17.8L15 18.9333L13.0667 20.0667L1.73333 13.3333L13.0667 6.53334L24.5333 13.2ZM24.6 12L13.0667 5.2L1.66667 12V2.93334L13.1333 1.73333L24.6 2.93334V12Z" fill="black"/>
</svg>
